<svg xmlns="http://www.w3.org/2000/svg" width="512" height="512" viewBox="0 0 512 512" role="img" aria-label="ProGrads"><rect width="512" height="512" rx="113" ry="113" fill="#243b30"/><g transform="translate(60.71 15.36) scale(0.49565)"><path fill="#f8eeda" fill-rule="evenodd" d="M 425.500 13.489 C 421.100 15.373, 398.825 24.631, 376 34.064 C 353.175 43.496, 315.825 58.964, 293 68.437 C 270.175 77.910, 215.640 100.475, 171.811 118.580 C 127.983 136.686, 92.433 151.791, 92.811 152.148 C 93.190 152.504, 117.125 163.139, 146 175.781 C 174.875 188.423, 203.282 200.885, 209.128 203.473 L 219.755 208.180 231.385 198.616 C 270.836 166.172, 319.094 145.271, 371.242 138.043 C 391.307 135.262, 392.361 135.510, 379 139.869 C 301.767 165.068, 242.916 213.314, 222.655 268.043 C 212.307 295.996, 211.584 328.587, 220.675 357.364 C 227.721 379.670, 242.149 402.924, 259.687 420.241 L 267.526 427.982 278.013 421.408 C 301.899 406.434, 328.161 395.501, 354.403 389.606 L 364.307 387.381 356.403 381.826 C 346.654 374.974, 333.094 360.976, 326.567 351.027 C 286.322 289.687, 318.119 205.883, 396.500 166.712 C 470.934 129.514, 570.241 145.222, 640.254 205.269 L 646.007 210.204 665.754 201.448 C 684.621 193.082, 712.215 181, 712.456 181 C 712.518 181, 712.707 198.063, 712.876 218.917 L 713.182 256.835 710.341 258.598 C 698.410 266, 694.893 278.315, 701.492 289.577 C 702.859 291.909, 705.124 294.652, 706.525 295.673 L 709.074 297.530 703.481 326.515 C 700.405 342.457, 696.113 364.580, 693.944 375.677 C 691.775 386.774, 690 396.512, 690 397.317 C 690 400.474, 705.099 403.489, 720.500 403.406 C 732.962 403.340, 748.430 400.904, 750.680 398.653 C 750.868 398.465, 749.247 389.129, 747.076 377.906 C 743.173 357.716, 734.951 314.920, 732.819 303.688 L 731.715 297.876 735.247 294.188 C 745.647 283.330, 743.985 266.616, 731.816 259.669 L 728.015 257.500 728.008 215.725 L 728 173.950 730.392 173.041 C 735.175 171.223, 776.520 152.740, 777.223 152.107 C 777.620 151.748, 756.470 142.597, 730.223 131.770 C 645.714 96.911, 637.184 93.383, 561 61.793 C 546.425 55.749, 522.575 45.836, 508 39.763 C 465.665 22.124, 435.712 9.997, 434.564 10.032 C 433.979 10.049, 429.900 11.604, 425.500 13.489 M 504.928 250.530 C 457.325 257.951, 423.635 282.323, 411.448 318.154 L 409.172 324.845 416.336 325.478 C 420.276 325.825, 449.938 325.973, 482.250 325.805 C 514.563 325.637, 541 325.885, 541 326.356 C 540.998 335.654, 531.403 354.492, 521.144 365.338 C 499.079 388.667, 469.486 400.131, 407.156 409.498 C 370.754 414.968, 349.909 419.899, 329.401 427.892 C 270.273 450.935, 226.707 494.051, 200.460 555.500 C 189.991 580.011, 184.366 599.658, 166.536 674 C 148.679 748.448, 122.556 790.179, 81.690 809.537 C 60.454 819.597, 38.283 821.444, 16.812 814.943 C 13.397 813.909, 10.474 813.193, 10.315 813.351 C 9.884 813.782, 12.712 828.038, 15.026 837.101 C 34.448 913.172, 98.553 967.540, 160 960.057 C 214.476 953.422, 255.991 903.737, 276.877 820.178 C 283.444 793.906, 287.478 766.694, 292.989 711.500 C 294.691 694.450, 296.991 674.201, 298.101 666.502 C 310.170 582.746, 336.280 535.440, 383.515 511.750 C 399.134 503.916, 406.557 501.948, 459.664 491.560 C 512.344 481.255, 551.888 461.308, 584.538 428.568 C 626.543 386.449, 647.450 334.443, 650.596 264.250 L 651.279 249 582.390 249.097 C 530.255 249.170, 511.415 249.519, 504.928 250.530 M 596 457.213 C 574.212 477.924, 541.265 497.603, 511.625 507.610 C 507.706 508.933, 503.861 510.252, 503.079 510.542 C 502.213 510.863, 504.750 512.867, 509.579 515.678 C 547.091 537.508, 554.927 586.713, 525.691 616.852 C 508.923 634.138, 491.752 641.367, 450.552 648.483 C 389.768 658.982, 356.103 680.462, 335.342 721.994 C 327.471 737.740, 322.234 756.355, 312.549 803 C 299.131 867.630, 273.466 918.382, 237.128 952.140 C 232.657 956.293, 229 959.911, 229 960.180 C 229 960.958, 240.506 959.174, 250.410 956.860 C 302.682 944.648, 346.344 911.780, 373.767 864 C 383.191 847.580, 388.467 834.800, 399.018 802.835 C 410.673 767.528, 414.554 759.372, 424.451 749.391 C 435.653 738.093, 443.319 735.127, 474.500 730.021 C 513.744 723.595, 533.442 717.863, 557.367 705.905 C 649.626 659.793, 677.964 555.370, 621.138 470.910 C 614.316 460.769, 605.526 449.957, 604.172 450.042 C 603.803 450.065, 600.125 453.292, 596 457.213"/></g></svg>
